<?xml version="1.0" encoding="UTF-8"?>
<svg id="Layer_1" xmlns="http://www.w3.org/2000/svg" version="1.1" viewBox="0 0 50 50">
  <!-- Generator: Adobe Illustrator 29.6.1, SVG Export Plug-In . SVG Version: 2.1.1 Build 9)  -->
  <defs>
    <style>
      .st0 {
        fill: #fff;
      }
    </style>
  </defs>
  <path class="st0" d="M43.67,23.78v.12c-.11,0-.32.08-.41.08h-9.63l-.05-.07c-.44-3.21-2.47-6.02-5.47-7.28-5.47-2.29-11.15.94-12.45,6.57-.03.14-.11.78-.2.81H5.48c0-.1,0-.2,0-.31.49-9.94,9.62-18.27,19.59-17.85s17.95,8.02,18.61,17.93Z"/>
  <path class="st0" d="M5.48,26.08h10.05c.51,3.7,3.09,6.75,6.7,7.75,1.39.38,3.45.36,4.84-.05,2.18-.63,3.98-2.06,5.18-3.97.72-1.15,1.12-2.38,1.33-3.72h10.09s0,.19,0,.19l-.29,2.03c-1.61,9.02-9.36,15.7-18.56,15.82-.07,0-.17-.02-.21.04h-.16c-.04-.06-.15-.04-.21-.04-9.35-.1-17.18-7.1-18.61-16.28l-.16-1.5v-.27Z"/>
  <path class="st0" d="M31.47,23.96c-.37-3.55-3.88-6.2-7.37-5.97-5.47.36-8.47,6.72-5.19,11.17,2.46,3.35,7.26,3.86,10.34,1.04,1.89-1.73,2.48-3.7,2.22-6.24Z"/>
</svg>